<svg width="24" height="24" viewBox="0 0 24 24" fill="none" xmlns="http://www.w3.org/2000/svg">
<path fill-rule="evenodd" clip-rule="evenodd" d="M12 3.00048C10.8181 3.00048 9.64778 3.23326 8.55585 3.68553C7.46392 4.1378 6.47177 4.80071 5.63604 5.63639C4.80031 6.47208 4.13738 7.46419 3.68508 8.55606C3.23279 9.64794 3 10.8182 3 12C3 13.1819 3.23279 14.3522 3.68508 15.444C4.13738 16.5359 4.80031 17.528 5.63604 18.3637C6.47177 19.1994 7.46392 19.8623 8.55585 20.3146C9.64778 20.7668 10.8181 20.9996 12 20.9996C14.3869 20.9996 16.6761 20.0514 18.364 18.3637C20.0518 16.676 21 14.3869 21 12C21 9.61321 20.0518 7.32414 18.364 5.63639C16.6761 3.94865 14.3869 3.00048 12 3.00048ZM1 12C1 5.92534 5.925 1.00058 12 1.00058C18.075 1.00058 23 5.92534 23 12C23 18.0748 18.075 22.9995 12 22.9995C5.925 22.9995 1 18.0748 1 12ZM13.25 16.7498C13.25 17.0813 13.1183 17.3993 12.8839 17.6337C12.6495 17.8681 12.3315 17.9998 12 17.9998C11.6685 17.9998 11.3505 17.8681 11.1161 17.6337C10.8817 17.3993 10.75 17.0813 10.75 16.7498C10.75 16.4183 10.8817 16.1004 11.1161 15.866C11.3505 15.6316 11.6685 15.4999 12 15.4999C12.3315 15.4999 12.6495 15.6316 12.8839 15.866C13.1183 16.1004 13.25 16.4183 13.25 16.7498ZM10.135 8.96419C10.4 8.46022 11.083 8.00024 12 8.00024C13.283 8.00024 14 8.8352 14 9.50017C14 10.1651 13.283 11.0001 12 11.0001C11.7348 11.0001 11.4804 11.1054 11.2929 11.293C11.1054 11.4805 11 11.7348 11 12V13C11 13.2652 11.1054 13.5195 11.2929 13.7071C11.4804 13.8946 11.7348 14 12 14C12.2652 14 12.5196 13.8946 12.7071 13.7071C12.8946 13.5195 13 13.2652 13 13V12.887C14.632 12.514 16 11.2471 16 9.50017C16 7.40427 14.03 6.00034 12 6.00034C10.457 6.00034 9.025 6.7753 8.364 8.03624C8.29924 8.15283 8.25845 8.28119 8.24404 8.41378C8.22963 8.54636 8.2419 8.68049 8.2801 8.80827C8.31831 8.93604 8.3817 9.05489 8.46653 9.1578C8.55136 9.26071 8.65592 9.34562 8.77405 9.40752C8.89219 9.46942 9.02151 9.50706 9.15442 9.51824C9.28732 9.52941 9.42112 9.51388 9.54793 9.47257C9.67475 9.43126 9.79201 9.36501 9.89284 9.2777C9.99366 9.19039 10.076 9.0838 10.135 8.96419Z" fill="black"/>
</svg>
