<svg width="18" height="18" viewBox="0 0 18 18" fill="none" xmlns="http://www.w3.org/2000/svg">
<path fill-rule="evenodd" clip-rule="evenodd" d="M5 6.00006C5 4.93919 5.42143 3.92178 6.17157 3.17163C6.92172 2.42149 7.93913 2.00006 9 2.00006C10.0609 2.00006 11.0783 2.42149 11.8284 3.17163C12.5786 3.92178 13 4.93919 13 6.00006C13 7.06092 12.5786 8.07834 11.8284 8.82849C11.0783 9.57863 10.0609 10.0001 9 10.0001C7.93913 10.0001 6.92172 9.57863 6.17157 8.82849C5.42143 8.07834 5 7.06092 5 6.00006ZM12.824 10.6231C13.7755 9.83591 14.461 8.77435 14.7868 7.58322C15.1127 6.3921 15.0631 5.12943 14.6448 3.96754C14.2265 2.80565 13.4599 1.80113 12.4495 1.09105C11.4392 0.380978 10.2344 -5.72205e-05 8.9995 -5.72205e-05C7.7646 -5.72205e-05 6.55978 0.380978 5.54946 1.09105C4.53913 1.80113 3.77251 2.80565 3.35421 3.96754C2.9359 5.12943 2.8863 6.3921 3.21217 7.58322C3.53803 8.77435 4.22349 9.83591 5.175 10.6231C1.986 11.7461 0 14.2471 0 17.0001C0 17.2653 0.105357 17.5196 0.292893 17.7072C0.48043 17.8947 0.734784 18.0001 1 18.0001C1.26522 18.0001 1.51957 17.8947 1.70711 17.7072C1.89464 17.5196 2 17.2653 2 17.0001C2 14.7301 4.355 12.0001 9 12.0001C13.645 12.0001 16 14.7301 16 17.0001C16 17.2653 16.1054 17.5196 16.2929 17.7072C16.4804 17.8947 16.7348 18.0001 17 18.0001C17.2652 18.0001 17.5196 17.8947 17.7071 17.7072C17.8946 17.5196 18 17.2653 18 17.0001C18 14.2471 16.016 11.7461 12.824 10.6231Z" fill="black"/>
</svg>
